# xmcd CD database file
#
# Track frame offsets:
#	150
#	20163
#	41115
#	63330
#	80588
#	98960
#	122813
#	139660
#	154393
#	171698
#	188900
#	194460
#
# Disc length: 2729 seconds
#
# Revision: 0
# Processed by: cddbd v1.5PL3 Copyright (c) Steve Scherf et al.
# Submitted via: CDex 1.51
#
DISCID=b50aa70c
DTITLE=Fairies Welcome - Love Sweat
DYEAR=1991
DGENRE=Blues
TTITLE0=Lovesweat
TTITLE1=Dedicated
TTITLE2=Die For You
TTITLE3=Count The Days
TTITLE4=Goodbye
TTITLE5=You Only
TTITLE6=Head, Heart and Soul
TTITLE7=Big Blue
TTITLE8=Wild Eyes
TTITLE9=Whatever It Takes
TTITLE10=Landscape
TTITLE11=Just For You
EXTD=YEAR: 1991
EXTT0=
EXTT1=
EXTT2=
EXTT3=
EXTT4=
EXTT5=
EXTT6=
EXTT7=
EXTT8=
EXTT9=
EXTT10=
EXTT11=
PLAYORDER=
